<svg viewBox="0 0 20 20" fill="none" xmlns="http://www.w3.org/2000/svg">
<g clip-path="url(#clip0_1_654)">
<path d="M10 20C15.5228 20 20 15.5228 20 10C20 4.47715 15.5228 0 10 0C4.47715 0 0 4.47715 0 10C0 15.5228 4.47715 20 10 20Z" fill="#EAF6FF"/>
<path d="M1.95312 10C1.95312 4.80664 5.91203 0.53793 10.9766 0.0471095C10.652 0.0156689 10.3261 -5.2559e-05 10 1.32004e-07C4.47715 1.32004e-07 0 4.47715 0 10C0 15.5229 4.47715 20 10 20C10.3295 20 10.6552 19.9841 10.9766 19.9529C5.91203 19.4621 1.95312 15.1934 1.95312 10Z" fill="#D8ECFE"/>
<path d="M3.31746 10.762C3.39262 10.9435 3.41234 11.1422 3.38734 11.337C3.22449 12.6074 3.7527 13.8798 4.76852 14.6612C4.92075 14.7784 5.03951 14.9336 5.11289 15.1111C5.60231 16.2966 6.69395 17.1392 7.96403 17.3127C8.15567 17.339 8.34 17.4078 8.49301 17.5261C9.12254 18.0131 9.90828 18.2815 10.7043 18.2815C11.0622 18.2815 11.9492 17.9478 11.9492 17.5178V2.48337C11.9492 2.0322 11.157 1.77064 10.5654 1.99212C10.4305 2.04263 10.2918 2.07497 10.1477 2.07497C10.0995 2.07496 10.0514 2.07178 10.0036 2.06544C9.84564 2.0445 9.68652 2.03397 9.52723 2.03392C8.41324 2.03392 7.34254 2.56118 6.66309 3.44446C6.54588 3.5967 6.39072 3.71545 6.21317 3.78884C5.02863 4.27786 4.18645 5.36817 4.01195 6.637C3.9852 6.83165 3.91426 7.01825 3.79434 7.17388C3.00715 8.19509 2.82434 9.57056 3.31746 10.762Z" fill="#FBC700"/>
<path d="M5.64471 9.55877C5.88643 10.2723 5.97011 11.054 5.88667 11.8193C5.8353 12.2902 5.99538 12.7627 6.30425 13.0523C6.80639 13.5229 7.19964 14.1489 7.44139 14.8625C7.59014 15.3016 7.92264 15.6133 8.30905 15.6759C8.93694 15.7776 9.63397 15.654 10.0366 16.5508C10.2779 17.0884 11.0615 17.583 11.5638 17.7794C11.749 17.8518 11.9491 17.7167 11.949 17.5177C11.9486 15.5335 11.9454 5.62721 11.9443 2.48327C11.9442 2.22733 11.6294 2.10323 11.4565 2.29198C11.1565 2.61963 10.7062 2.92842 10.0741 2.93057C9.62057 2.93209 8.82413 3.20666 8.65979 3.68838C8.42616 4.37323 7.75995 4.77948 7.17432 5.07409C6.81397 5.25534 6.55819 5.66053 6.50682 6.13143C6.42339 6.89655 6.17518 7.6244 5.78889 8.23651C5.5512 8.61299 5.49596 9.11967 5.64471 9.55877Z" fill="#FFE02F"/>
<path d="M10.1359 14.7118C10.2159 14.7118 10.2927 14.7436 10.3493 14.8002C10.4059 14.8568 10.4377 14.9336 10.4377 15.0136C10.4377 15.0936 10.4059 15.1704 10.3493 15.227C10.2927 15.2836 10.2159 15.3154 10.1359 15.3154C10.0559 15.3154 9.9791 15.2836 9.9225 15.227C9.86591 15.1704 9.83411 15.0936 9.83411 15.0136C9.83411 14.9336 9.86591 14.8568 9.9225 14.8002C9.9791 14.7436 10.0559 14.7118 10.1359 14.7118ZM15.0741 14.6982C15.1542 14.6982 15.231 14.73 15.2876 14.7866C15.3441 14.8432 15.3759 14.92 15.3759 15C15.3759 15.0801 15.3441 15.1568 15.2876 15.2134C15.231 15.27 15.1542 15.3018 15.0741 15.3018C14.9941 15.3018 14.9173 15.27 14.8607 15.2134C14.8041 15.1568 14.7724 15.0801 14.7724 15C14.7724 14.92 14.8041 14.8432 14.8607 14.7866C14.9173 14.73 14.9941 14.6982 15.0741 14.6982ZM13.1991 12.8232C13.2792 12.8232 13.356 12.855 13.4126 12.9116C13.4691 12.9682 13.5009 13.045 13.5009 13.125C13.5009 13.2051 13.4691 13.2818 13.4126 13.3384C13.356 13.395 13.2792 13.4268 13.1991 13.4268C13.1191 13.4268 13.0423 13.395 12.9857 13.3384C12.9291 13.2818 12.8974 13.2051 12.8974 13.125C12.8974 13.045 12.9291 12.9682 12.9857 12.9116C13.0423 12.855 13.1191 12.8232 13.1991 12.8232ZM15.0741 5.94824C15.1138 5.94824 15.153 5.95605 15.1896 5.97122C15.2263 5.98638 15.2595 6.00861 15.2876 6.03664C15.3156 6.06466 15.3378 6.09793 15.353 6.13455C15.3681 6.17116 15.3759 6.21041 15.3759 6.25004C15.3759 6.28967 15.3681 6.32892 15.353 6.36553C15.3378 6.40215 15.3156 6.43542 15.2876 6.46344C15.2595 6.49147 15.2263 6.5137 15.1896 6.52886C15.153 6.54403 15.1138 6.55184 15.0741 6.55184C14.9941 6.55184 14.9173 6.52004 14.8607 6.46344C14.8041 6.40684 14.7724 6.33008 14.7724 6.25004C14.7724 6.17 14.8041 6.09323 14.8607 6.03664C14.9173 5.98004 14.9941 5.94824 15.0741 5.94824ZM10.0837 5.94824C10.1234 5.94824 10.1626 5.95605 10.1992 5.97122C10.2358 5.98638 10.2691 6.00861 10.2971 6.03664C10.3251 6.06466 10.3474 6.09793 10.3625 6.13455C10.3777 6.17116 10.3855 6.21041 10.3855 6.25004C10.3855 6.28967 10.3777 6.32892 10.3625 6.36553C10.3474 6.40215 10.3251 6.43542 10.2971 6.46344C10.2691 6.49147 10.2358 6.5137 10.1992 6.52886C10.1626 6.54403 10.1234 6.55184 10.0837 6.55184C10.0037 6.55184 9.92691 6.52004 9.87032 6.46344C9.81372 6.40684 9.78192 6.33008 9.78192 6.25004C9.78192 6.17 9.81372 6.09323 9.87032 6.03664C9.92691 5.98004 10.0037 5.94824 10.0837 5.94824Z" fill="#68CA44"/>
<path d="M4.60413 10.9482C4.66382 10.9482 4.72217 10.9659 4.7718 10.9991C4.82143 11.0323 4.86012 11.0794 4.88296 11.1345C4.9058 11.1897 4.91178 11.2504 4.90013 11.3089C4.88849 11.3675 4.85974 11.4212 4.81754 11.4634C4.77533 11.5056 4.72156 11.5344 4.66301 11.546C4.60447 11.5577 4.54379 11.5517 4.48864 11.5289C4.4335 11.506 4.38636 11.4673 4.3532 11.4177C4.32004 11.3681 4.30234 11.3097 4.30234 11.25C4.30233 11.2104 4.31014 11.1712 4.3253 11.1345C4.34046 11.0979 4.3627 11.0647 4.39072 11.0366C4.41875 11.0086 4.45202 10.9864 4.48864 10.9712C4.52525 10.956 4.5645 10.9482 4.60413 10.9482Z" fill="#C41926"/>
<path d="M10.0741 12.1982C10.1138 12.1982 10.153 12.206 10.1896 12.2212C10.2263 12.2364 10.2595 12.2586 10.2876 12.2866C10.3156 12.3147 10.3378 12.3479 10.353 12.3845C10.3681 12.4212 10.3759 12.4604 10.3759 12.5C10.3759 12.5397 10.3681 12.5789 10.353 12.6155C10.3378 12.6521 10.3156 12.6854 10.2876 12.7134C10.2595 12.7415 10.2263 12.7637 10.1896 12.7789C10.153 12.794 10.1138 12.8018 10.0741 12.8018C9.99411 12.8018 9.91734 12.77 9.86075 12.7134C9.80415 12.6568 9.77235 12.5801 9.77235 12.5C9.77235 12.42 9.80415 12.3432 9.86075 12.2866C9.91734 12.23 9.99411 12.1982 10.0741 12.1982ZM5.26048 5.94824C5.30011 5.94824 5.33935 5.95605 5.37597 5.97122C5.41258 5.98638 5.44585 6.00861 5.47388 6.03664C5.5019 6.06466 5.52413 6.09793 5.5393 6.13455C5.55447 6.17116 5.56227 6.21041 5.56227 6.25004C5.56227 6.28967 5.55447 6.32892 5.5393 6.36553C5.52413 6.40215 5.5019 6.43542 5.47388 6.46344C5.44585 6.49147 5.41258 6.5137 5.37597 6.52886C5.33935 6.54403 5.30011 6.55184 5.26048 6.55184C5.18043 6.55184 5.10367 6.52004 5.04707 6.46344C4.99048 6.40684 4.95868 6.33008 4.95868 6.25004C4.95868 6.17 4.99048 6.09323 5.04707 6.03664C5.10367 5.98004 5.18043 5.94824 5.26048 5.94824Z" fill="#E41F2D"/>
<path d="M9.44914 4.69824C9.52918 4.69824 9.60594 4.73004 9.66254 4.78664C9.71914 4.84323 9.75093 4.92 9.75093 5.00004C9.75093 5.08008 9.71914 5.15684 9.66254 5.21344C9.60594 5.27004 9.52918 5.30184 9.44914 5.30184C9.36909 5.30184 9.29233 5.27004 9.23573 5.21344C9.17914 5.15684 9.14734 5.08008 9.14734 5.00004C9.14734 4.92 9.17914 4.84323 9.23573 4.78664C9.29233 4.73004 9.36909 4.69824 9.44914 4.69824Z" fill="#C41926"/>
<path d="M10.0741 10.2817C10.0741 11.5068 9.08096 12.5 7.85581 12.5C7.81882 12.5 7.78219 12.4927 7.74801 12.4786C7.71384 12.4644 7.68279 12.4437 7.65663 12.4175C7.63047 12.3913 7.60972 12.3603 7.59557 12.3261C7.58141 12.2919 7.57413 12.2553 7.57413 12.2183C7.57413 10.9932 8.56729 10 9.79245 10C9.86715 10 9.9388 10.0297 9.99163 10.0825C10.0445 10.1353 10.0741 10.207 10.0741 10.2817Z" fill="#68CA44"/>
<path d="M9.80316 8.73926C8.9232 8.73926 8.20984 8.0259 8.20984 7.14594C8.20984 7.07123 8.23952 6.99959 8.29234 6.94676C8.34517 6.89393 8.41681 6.86426 8.49152 6.86426C9.37148 6.86426 10.0848 7.57762 10.0848 8.45758C10.0848 8.53228 10.0552 8.60393 10.0023 8.65676C9.94951 8.70958 9.87787 8.73926 9.80316 8.73926Z" fill="#4FC123"/>
<path d="M15.0741 11.8818C16.1134 11.8818 16.9559 11.0392 16.9559 9.99996C16.9559 8.96067 16.1134 8.11816 15.0741 8.11816C14.0349 8.11816 13.1924 8.96067 13.1924 9.99996C13.1924 11.0392 14.0349 11.8818 15.0741 11.8818Z" fill="#E41F2D"/>
<path d="M13.9736 10C13.9736 9.09469 14.613 8.33872 15.4648 8.15891C15.3364 8.13184 15.2054 8.11822 15.0742 8.11829C14.0349 8.11829 13.1924 8.96079 13.1924 10.0001C13.1924 11.0393 14.0349 11.8819 15.0742 11.8819C15.2081 11.8819 15.3388 11.8679 15.4648 11.8413C14.613 11.6614 13.9736 10.9054 13.9736 10Z" fill="#C41926"/>
<path d="M13.5902 15.7411C13.6613 15.7411 13.7327 15.7661 13.7901 15.8169L14.2582 16.2312C14.3174 16.2844 14.3531 16.3589 14.3576 16.4384C14.3621 16.5179 14.3351 16.596 14.2823 16.6556C14.2295 16.7152 14.1553 16.7516 14.0759 16.7567C13.9964 16.7619 13.9182 16.7355 13.8581 16.6832L13.3901 16.269C13.3442 16.2284 13.3118 16.1748 13.2971 16.1153C13.2824 16.0558 13.2862 15.9932 13.3079 15.9359C13.3296 15.8787 13.3683 15.8293 13.4187 15.7945C13.4691 15.7597 13.529 15.7411 13.5902 15.7411ZM15.2814 12.7542C15.3395 12.7542 15.3964 12.771 15.4452 12.8026C15.494 12.8342 15.5326 12.8792 15.5565 12.9322C15.5803 12.9852 15.5884 13.0439 15.5796 13.1014C15.5709 13.1588 15.5458 13.2126 15.5073 13.2561L15.093 13.7241C15.0398 13.7833 14.9653 13.819 14.8858 13.8235C14.8063 13.8281 14.7283 13.801 14.6686 13.7482C14.609 13.6954 14.5727 13.6213 14.5675 13.5418C14.5623 13.4624 14.5887 13.3841 14.641 13.324L15.0552 12.856C15.0835 12.824 15.1183 12.7983 15.1573 12.7807C15.1963 12.7632 15.2386 12.7542 15.2814 12.7542ZM13.4064 6.32851C13.4645 6.32854 13.5214 6.34534 13.5702 6.37691C13.619 6.40847 13.6576 6.45346 13.6815 6.50646C13.7053 6.55946 13.7134 6.61822 13.7046 6.67568C13.6959 6.73314 13.6708 6.78686 13.6323 6.83039L13.218 7.29839C13.1648 7.35758 13.0903 7.39332 13.0108 7.39783C12.9313 7.40235 12.8533 7.37528 12.7936 7.32251C12.734 7.26974 12.6977 7.19555 12.6925 7.1161C12.6873 7.03665 12.7137 6.95837 12.766 6.89832L13.1802 6.43031C13.2085 6.39826 13.2433 6.37261 13.2823 6.35505C13.3213 6.3375 13.3636 6.32845 13.4064 6.32851ZM13.5902 3.24109C13.6613 3.24109 13.7327 3.26605 13.7901 3.31691L14.2582 3.73113C14.3174 3.78439 14.3531 3.85887 14.3576 3.93837C14.3621 4.01786 14.3351 4.09591 14.2823 4.15553C14.2295 4.21515 14.1553 4.25151 14.0759 4.25669C13.9964 4.26186 13.9182 4.23543 13.8581 4.18316L13.3901 3.76894C13.3442 3.72833 13.3118 3.67472 13.2971 3.61523C13.2824 3.55574 13.2862 3.4932 13.3079 3.43591C13.3296 3.37862 13.3683 3.32929 13.4187 3.29449C13.4691 3.2597 13.529 3.24107 13.5902 3.24109ZM5.24819 13.1741C5.35483 13.1741 5.45823 13.2308 5.51311 13.3309L5.81354 13.8789C5.85203 13.9491 5.86105 14.0317 5.83864 14.1086C5.81622 14.1854 5.7642 14.2502 5.69401 14.2887C5.62383 14.3272 5.54123 14.3362 5.46439 14.3138C5.38755 14.2913 5.32277 14.2393 5.28429 14.1691L4.98386 13.6211C4.95866 13.5752 4.94585 13.5234 4.94669 13.4711C4.94754 13.4187 4.96201 13.3674 4.98868 13.3223C5.01536 13.2772 5.05331 13.2398 5.09881 13.2138C5.14431 13.1879 5.1958 13.1742 5.24819 13.1741Z" fill="#4FC123"/>
<path d="M8.63026 13.1751C8.67588 13.175 8.72092 13.1853 8.76199 13.2052C8.80305 13.2251 8.83906 13.254 8.86729 13.2899L9.25467 13.7803C9.27924 13.8114 9.29744 13.8471 9.30823 13.8852C9.31902 13.9234 9.32219 13.9632 9.31757 14.0026C9.31294 14.042 9.30061 14.08 9.28127 14.1146C9.26194 14.1492 9.23597 14.1797 9.20487 14.2042C9.17377 14.2288 9.13813 14.247 9.09999 14.2578C9.06185 14.2686 9.02197 14.2718 8.9826 14.2671C8.94324 14.2625 8.90517 14.2502 8.87057 14.2308C8.83598 14.2115 8.80553 14.1855 8.78096 14.1544L8.39358 13.664C8.35845 13.6195 8.33655 13.566 8.33039 13.5097C8.32424 13.4533 8.33407 13.3964 8.35877 13.3454C8.38347 13.2944 8.42203 13.2513 8.47004 13.2212C8.51806 13.1911 8.57358 13.1751 8.63026 13.1751ZM7.81921 8.24377C7.88193 8.24373 7.94311 8.26323 7.99423 8.29956C8.04536 8.33589 8.0839 8.38724 8.10449 8.44649C8.12509 8.50573 8.12671 8.56992 8.10913 8.63013C8.09156 8.69034 8.05566 8.74358 8.00643 8.78245L7.51596 9.16983C7.48486 9.1944 7.44922 9.2126 7.41109 9.2234C7.37295 9.23419 7.33306 9.23737 7.29369 9.23274C7.25433 9.22812 7.21626 9.21578 7.18166 9.19644C7.14707 9.1771 7.11662 9.15113 7.09206 9.12002C7.06749 9.08892 7.04929 9.05328 7.0385 9.01515C7.02771 8.97701 7.02454 8.93712 7.02916 8.89776C7.03379 8.85839 7.04612 8.82032 7.06546 8.78573C7.08479 8.75113 7.11076 8.72068 7.14186 8.69612L7.63233 8.30874C7.6855 8.2666 7.75137 8.24371 7.81921 8.24377Z" fill="#68CA44"/>
<path d="M4.38971 8.13745C4.43659 8.13744 4.48283 8.14834 4.52476 8.16929C4.56669 8.19025 4.60317 8.22068 4.63129 8.25818C4.65942 8.29568 4.67843 8.33922 4.68682 8.38534C4.6952 8.43146 4.69273 8.4789 4.6796 8.5239L4.50452 9.12386C4.48121 9.19967 4.42901 9.26326 4.3592 9.30089C4.28938 9.33852 4.20756 9.34716 4.13143 9.32495C4.05529 9.30274 3.99095 9.25146 3.95232 9.18219C3.91369 9.11293 3.90387 9.03124 3.92499 8.95479L4.10006 8.35483C4.11836 8.29216 4.15648 8.23711 4.20869 8.19792C4.26091 8.15873 4.32442 8.13751 4.38971 8.13745Z" fill="#4FC123"/>
</g>
<defs>
<clipPath id="clip0_1_654">
<rect width="20" height="20" fill="white"/>
</clipPath>
</defs>
</svg>
