<svg viewBox="0 0 20 20" fill="none" xmlns="http://www.w3.org/2000/svg">
<path d="M18.2422 6.87142C18.0499 6.86517 17.859 6.90646 17.6865 6.99164C17.514 7.07681 17.3651 7.20324 17.2531 7.3597C17.2436 7.37332 17.23 7.38356 17.2143 7.38892C17.1986 7.39429 17.1816 7.39451 17.1657 7.38954C17.1499 7.38458 17.136 7.37469 17.1262 7.36132C17.1163 7.34794 17.111 7.33178 17.1109 7.31517V5.88353C17.1109 5.07298 16.4727 4.39095 15.6625 4.37181C15.4645 4.36681 15.2674 4.40149 15.083 4.47382C14.8986 4.54615 14.7305 4.65466 14.5887 4.79295C14.4469 4.93125 14.3342 5.09654 14.2572 5.27907C14.1803 5.46161 14.1406 5.6577 14.1406 5.8558V9.05892C14.1406 9.07964 14.1324 9.09951 14.1177 9.11416C14.1031 9.12882 14.0832 9.13705 14.0625 9.13705H5.9375C5.91678 9.13705 5.89691 9.12882 5.88226 9.11416C5.86761 9.09951 5.85938 9.07964 5.85938 9.05892V5.88353C5.85938 5.07298 5.22109 4.39095 4.41094 4.37181C4.21304 4.36702 4.01618 4.40186 3.83194 4.47428C3.6477 4.54671 3.47982 4.65525 3.33816 4.79353C3.1965 4.9318 3.08392 5.09702 3.00707 5.27945C2.93021 5.46188 2.89062 5.65784 2.89063 5.8558V7.31595C2.89059 7.33256 2.88525 7.34873 2.8754 7.3621C2.86556 7.37547 2.8517 7.38536 2.83585 7.39032C2.82 7.39529 2.80298 7.39507 2.78726 7.3897C2.77154 7.38434 2.75794 7.3741 2.74844 7.36048C2.6364 7.20365 2.48734 7.07693 2.31451 6.99161C2.14168 6.90629 1.95045 6.865 1.75781 6.87142C1.12109 6.89134 0.625 7.43041 0.625 8.06751V11.9238C0.625 12.5609 1.12266 13.0999 1.75781 13.1199C1.95012 13.1261 2.141 13.0848 2.31352 12.9996C2.48605 12.9145 2.6349 12.788 2.74688 12.6316C2.75615 12.6172 2.7699 12.6062 2.78602 12.6004C2.80213 12.5946 2.81971 12.5942 2.83605 12.5994C2.85238 12.6045 2.86658 12.6149 2.87644 12.6289C2.8863 12.6429 2.89129 12.6598 2.89063 12.6769V14.1093C2.89063 14.9183 3.52891 15.6019 4.33906 15.6214C4.537 15.6262 4.73389 15.5914 4.91815 15.5189C5.10241 15.4465 5.27032 15.3379 5.41198 15.1996C5.55365 15.0613 5.66621 14.896 5.74305 14.7135C5.81988 14.531 5.85943 14.335 5.85938 14.137V10.9339C5.85938 10.9132 5.86761 10.8933 5.88226 10.8787C5.89691 10.864 5.91678 10.8558 5.9375 10.8558H14.0625C14.0832 10.8558 14.1031 10.864 14.1177 10.8787C14.1324 10.8933 14.1406 10.9132 14.1406 10.9339V14.1093C14.1406 14.9199 14.7789 15.6019 15.5891 15.621C15.787 15.6258 15.9838 15.591 16.1681 15.5186C16.3523 15.4461 16.5202 15.3376 16.6618 15.1993C16.8035 15.061 16.9161 14.8958 16.9929 14.7134C17.0698 14.531 17.1094 14.335 17.1094 14.137V12.6769C17.1094 12.6603 17.1147 12.6441 17.1246 12.6307C17.1344 12.6174 17.1483 12.6075 17.1642 12.6025C17.18 12.5976 17.197 12.5978 17.2127 12.6031C17.2285 12.6085 17.2421 12.6187 17.2516 12.6324C17.3636 12.7892 17.5127 12.9159 17.6855 13.0012C17.8583 13.0866 18.0496 13.1278 18.2422 13.1214C18.8789 13.1015 19.375 12.5624 19.375 11.9253V8.0683C19.375 7.43119 18.8773 6.89212 18.2422 6.87142Z" fill="white" fill-opacity="0.4"/>
</svg>
