<svg viewBox="0 0 20 20" fill="none" xmlns="http://www.w3.org/2000/svg">
<g clip-path="url(#clip0_1_397)">
<path d="M13.9676 8.74669C14.3782 8.74782 14.785 8.66747 15.1644 8.5103C15.5438 8.35313 15.8882 8.12226 16.1777 7.83106L19.1856 4.8252C19.4234 4.58731 19.4453 4.2002 19.2188 3.9506C19.1619 3.88788 19.0929 3.83738 19.0159 3.80215C18.9389 3.76693 18.8555 3.74771 18.7709 3.74566C18.6863 3.74361 18.6021 3.75879 18.5235 3.79025C18.4449 3.82172 18.3735 3.86883 18.3137 3.92872L15.6328 6.60763C15.5428 6.69753 15.4208 6.74803 15.2936 6.74803C15.1663 6.74803 15.0443 6.69753 14.9543 6.60763C14.7672 6.42091 14.7774 6.10528 14.9641 5.91856L17.6332 3.24942C17.693 3.18959 17.7401 3.11823 17.7715 3.03967C17.803 2.96111 17.8181 2.87698 17.8161 2.79239C17.814 2.7078 17.7948 2.62451 17.7596 2.54756C17.7244 2.47061 17.674 2.40161 17.6113 2.34474C17.4982 2.24214 17.3508 2.18569 17.1981 2.18653C17.025 2.18665 16.859 2.2555 16.7367 2.37794L14.0699 5.04435C13.9799 5.13425 13.8579 5.18475 13.7307 5.18475C13.6035 5.18475 13.4814 5.13425 13.3914 5.04435C13.2047 4.85763 13.2145 4.542 13.4012 4.35528L16.0703 1.68692C16.1302 1.62709 16.1772 1.55573 16.2086 1.47717C16.2401 1.39861 16.2552 1.31448 16.2532 1.22989C16.2511 1.1453 16.2319 1.06201 16.1967 0.98506C16.1615 0.908111 16.1111 0.839109 16.0484 0.782236C15.9353 0.679643 15.7879 0.623192 15.6352 0.624033C15.4621 0.624238 15.2962 0.693073 15.1738 0.815439L12.168 3.8213C11.8768 4.1109 11.6459 4.45539 11.4887 4.83484C11.3315 5.21428 11.2512 5.62114 11.2524 6.03185V6.35333C11.2524 6.43552 11.2363 6.51692 11.2048 6.59287C11.1734 6.66881 11.1273 6.73781 11.0692 6.79591L9.67814 8.18731C9.66363 8.20184 9.64639 8.21337 9.62743 8.22123C9.60846 8.22909 9.58812 8.23314 9.56759 8.23314C9.54706 8.23314 9.52672 8.22909 9.50776 8.22123C9.48879 8.21337 9.47155 8.20184 9.45704 8.18731L2.68829 1.41817C2.57147 1.30122 2.41307 1.23531 2.24776 1.23487C2.08246 1.23443 1.92371 1.2995 1.80626 1.41583C1.21447 2.00216 0.898451 2.82989 0.898451 3.80919C0.894545 5.42638 1.74454 7.28575 3.11681 8.65606L6.4547 11.994C6.92911 12.4674 7.57196 12.7333 8.2422 12.7334C8.45587 12.7335 8.66867 12.7062 8.8754 12.6522C8.92731 12.6386 8.98073 12.6316 9.03439 12.6315C9.19129 12.6315 9.34239 12.6908 9.45743 12.7975L9.90236 13.2084C10.0171 13.3256 10.0816 13.483 10.082 13.6471V13.8635C10.0809 14.3554 10.2742 14.8279 10.6199 15.1779L14.1375 18.7549L14.141 18.7588C14.5314 19.1492 15.0609 19.3684 15.613 19.3684C16.1651 19.3684 16.6946 19.149 17.085 18.7586C17.4753 18.3682 17.6946 17.8387 17.6946 17.2866C17.6945 16.7345 17.4752 16.205 17.0848 15.8147L11.8121 10.542C11.7976 10.5275 11.7861 10.5103 11.7782 10.4913C11.7703 10.4723 11.7663 10.452 11.7663 10.4315C11.7663 10.4109 11.7703 10.3906 11.7782 10.3716C11.7861 10.3527 11.7976 10.3354 11.8121 10.3209L13.2031 8.92989C13.2612 8.8718 13.3301 8.82572 13.406 8.79428C13.4819 8.76285 13.5632 8.74668 13.6453 8.74669H13.9676Z" fill="white" fill-opacity="0.4"/>
<path d="M8.2422 13.9813C7.24155 13.9792 6.28207 13.5827 5.57189 12.8778L5.03048 12.3364C4.9719 12.2779 4.89253 12.2451 4.80978 12.2451C4.72703 12.2451 4.64766 12.2779 4.58907 12.3364L1.26876 15.6395C0.676965 16.2313 0.465637 17.1024 0.758605 17.9555C0.775003 18.0036 0.794443 18.0506 0.816809 18.0961C1.21095 18.9032 1.97579 19.3719 2.81251 19.3719C3.10026 19.3726 3.38529 19.3162 3.65108 19.206C3.91688 19.0958 4.15816 18.9339 4.36095 18.7297L8.78907 14.2805C8.80771 14.2615 8.82198 14.2386 8.83089 14.2136C8.83979 14.1885 8.84312 14.1617 8.84064 14.1352V14.1251C8.8389 14.1007 8.83225 14.0769 8.82108 14.0552C8.80992 14.0335 8.79447 14.0143 8.77567 13.9987C8.75688 13.9831 8.73512 13.9715 8.71171 13.9645C8.6883 13.9576 8.66372 13.9554 8.63947 13.9583C8.50754 13.9729 8.37493 13.9806 8.2422 13.9813Z" fill="white" fill-opacity="0.4"/>
</g>
<defs>
<clipPath id="clip0_1_397">
<rect width="20" height="20" fill="white"/>
</clipPath>
</defs>
</svg>
