<svg viewBox="0 0 20 20" fill="none" xmlns="http://www.w3.org/2000/svg">
<path d="M12.9937 2.52412C12.2335 1.70342 11.1718 1.25146 9.99992 1.25146C8.82179 1.25146 7.75656 1.70068 6.99992 2.51631C6.23507 3.34092 5.86242 4.46162 5.94992 5.67178C6.12336 8.05928 7.94015 10.0015 9.99992 10.0015C12.0597 10.0015 13.8734 8.05967 14.0495 5.67256C14.1382 4.47334 13.7632 3.35498 12.9937 2.52412ZM16.8749 18.7515H3.12492C2.94494 18.7538 2.76671 18.716 2.60319 18.6408C2.43966 18.5656 2.29496 18.4549 2.17961 18.3167C1.9257 18.0132 1.82336 17.5987 1.89914 17.1796C2.22882 15.3507 3.25773 13.8144 4.87492 12.7358C6.31164 11.7784 8.13156 11.2515 9.99992 11.2515C11.8683 11.2515 13.6882 11.7788 15.1249 12.7358C16.7421 13.814 17.771 15.3503 18.1007 17.1792C18.1765 17.5983 18.0741 18.0128 17.8202 18.3163C17.7049 18.4545 17.5602 18.5653 17.3967 18.6406C17.2332 18.7159 17.0549 18.7538 16.8749 18.7515Z" fill="white" fill-opacity="0.4"/>
</svg>
