<svg viewBox="0 0 14 14" fill="none" xmlns="http://www.w3.org/2000/svg">
<path d="M9.18754 5.5562L6.51237 2.88104C6.34823 2.71697 6.12563 2.62482 5.89354 2.62488C5.66146 2.62493 5.4389 2.71718 5.27483 2.88133C5.11076 3.04547 5.01862 3.26807 5.01868 3.50016C5.01873 3.73224 5.11098 3.9548 5.27513 4.11887L7.95029 6.79345C7.97745 6.82055 7.999 6.85273 8.0137 6.88817C8.02841 6.9236 8.03598 6.96159 8.03598 6.99995C8.03598 7.03832 8.02841 7.0763 8.0137 7.11174C7.999 7.14717 7.97745 7.17936 7.95029 7.20645L5.27513 9.88104C5.11098 10.0451 5.01873 10.2677 5.01868 10.4997C5.01862 10.7318 5.11076 10.9544 5.27483 11.1186C5.4389 11.2827 5.66146 11.375 5.89354 11.375C6.12563 11.3751 6.34823 11.2829 6.51237 11.1189L9.18754 8.4437C9.56975 8.06043 9.78439 7.54124 9.78439 6.99995C9.78439 6.45867 9.56975 5.93947 9.18754 5.5562Z" fill="black"/>
</svg>
