<svg viewBox="0 0 20 20" fill="none" xmlns="http://www.w3.org/2000/svg">
<path d="M15.2344 17.0312C15.2344 18.6484 13.9218 20 12.3047 20H4.10156C2.48445 20 1.17188 18.6484 1.17188 17.0312H15.2344Z" fill="#FFDA2D"/>
<path d="M7.03125 4.72656H8.20312V5.89844H7.03125V4.72656Z" fill="#FED2A4"/>
<path d="M10.5469 0V1.25781C10.5469 2.52352 9.5157 3.55469 8.25 3.55469H7.61719C6.64445 3.55469 5.85938 4.33977 5.85938 5.3125V5.89844H4.6875V5.3125C4.6875 3.69539 6.00008 2.38281 7.61719 2.38281H8.25C8.87117 2.38281 9.375 1.87898 9.375 1.25781V0H10.5469Z" fill="#FED2A4"/>
<path d="M11.7188 5.89844H9.375V4.72656H11.7188C12.3648 4.72656 12.8906 4.20078 12.8906 3.55469H14.0625C14.0625 4.84727 13.0113 5.89844 11.7188 5.89844Z" fill="#FFBD86"/>
<path d="M15.2344 7.07031V12.3438C15.2344 14.1837 14.2852 15.7891 12.8671 16.7383H4.65227C3.37492 16.7383 2.34375 15.7071 2.34375 14.4296V7.07031H15.2344Z" fill="#F2F6FC"/>
<path d="M15.2344 7.07031L14.6484 8.24219H17.5781V8.82812C17.5781 10.7518 16.2706 12.3958 14.3983 12.8256L14.6605 13.9676C17.0683 13.4149 18.75 11.3017 18.75 8.82812V7.07031H15.2344Z" fill="#DCE1EB"/>
<path d="M8.25 3.55469H8.20312V2.38281H8.25C8.87117 2.38281 9.375 1.87898 9.375 1.25781V0H10.5469V1.25781C10.5469 2.52352 9.5157 3.55469 8.25 3.55469Z" fill="#FFBD86"/>
<path d="M15.2344 7.07031V12.3438C15.2344 14.1837 14.2852 15.7891 12.8671 16.7383H8.20312V7.07031H15.2344Z" fill="#DCE1EB"/>
<path d="M7.03125 17.6172H6.44531C3.53746 17.6172 1.17188 15.2516 1.17188 12.3438V11.7578H1.75781C4.66566 11.7578 7.03125 14.1234 7.03125 17.0312V17.6172Z" fill="#66BB00"/>
<path d="M8.20312 13.3398C6.42059 14.1707 5.85938 15.6915 5.85938 17.6172C6.74363 17.6172 7.35336 17.6414 8.20312 17.207C9.98566 16.3762 10.5469 14.8553 10.5469 12.9297C9.66262 12.9297 9.05305 12.9056 8.20312 13.3398Z" fill="#C3EA21"/>
<path d="M10.5469 12.9297C10.5469 14.8546 9.98625 16.3759 8.20312 17.207V13.3398C9.05305 12.9056 9.66262 12.9297 10.5469 12.9297Z" fill="#9CDD05"/>
<path d="M15.2344 17.0312C15.2344 18.6484 13.9218 20 12.3047 20H8.20312V17.0312H15.2344Z" fill="#FDBF00"/>
<path d="M0 16.4453H16.4062V17.6172H0V16.4453Z" fill="#FDBF00"/>
<path d="M8.20312 16.4453H16.4062V17.6172H8.20312V16.4453Z" fill="#FF9100"/>
</svg>
