<svg viewBox="0 0 20 20" fill="none" xmlns="http://www.w3.org/2000/svg">
<path d="M13.0036 4.29961C13.5863 3.92821 13.9236 3.48895 13.9236 3.01813C13.9236 1.68465 11.2211 0.603638 7.88735 0.603638C4.55364 0.603638 1.8511 1.68461 1.8511 3.01813C1.8511 3.48895 2.18837 3.92825 2.77103 4.29961C2.51039 6.54804 2.24781 8.79625 1.98329 11.0442C1.90513 11.7088 2.352 12.3278 3.03161 12.494C6.21692 13.2732 9.55774 13.2732 12.7431 12.494C13.4227 12.3277 13.8695 11.7088 13.7914 11.0442C13.5268 8.79625 13.2643 6.54805 13.0036 4.29961Z" fill="#ECCE93"/>
<path d="M4.50504 3.23152C4.67172 3.23152 4.80684 3.0964 4.80684 2.92973C4.80684 2.76305 4.67172 2.62793 4.50504 2.62793C4.33837 2.62793 4.20325 2.76305 4.20325 2.92973C4.20325 3.0964 4.33837 3.23152 4.50504 3.23152Z" fill="#E1B872"/>
<path d="M6.91953 4.84102C7.08621 4.84102 7.22133 4.7059 7.22133 4.53922C7.22133 4.37255 7.08621 4.23743 6.91953 4.23743C6.75286 4.23743 6.61774 4.37255 6.61774 4.53922C6.61774 4.7059 6.75286 4.84102 6.91953 4.84102Z" fill="#E1B872"/>
<path d="M4.50504 4.43868C4.67172 4.43868 4.80684 4.30356 4.80684 4.13688C4.80684 3.9702 4.67172 3.83508 4.50504 3.83508C4.33837 3.83508 4.20325 3.9702 4.20325 4.13688C4.20325 4.30356 4.33837 4.43868 4.50504 4.43868Z" fill="#E1B872"/>
<path d="M4.50504 7.65791C4.67172 7.65791 4.80684 7.5228 4.80684 7.35612C4.80684 7.18944 4.67172 7.05432 4.50504 7.05432C4.33837 7.05432 4.20325 7.18944 4.20325 7.35612C4.20325 7.5228 4.33837 7.65791 4.50504 7.65791Z" fill="#E1B872"/>
<path d="M6.5171 7.25545C6.68378 7.25545 6.8189 7.12033 6.8189 6.95365C6.8189 6.78697 6.68378 6.65186 6.5171 6.65186C6.35042 6.65186 6.2153 6.78697 6.2153 6.95365C6.2153 7.12033 6.35042 7.25545 6.5171 7.25545Z" fill="#E1B872"/>
<path d="M3.7002 8.86519C3.86688 8.86519 4.002 8.73007 4.002 8.56339C4.002 8.39672 3.86688 8.2616 3.7002 8.2616C3.53353 8.2616 3.39841 8.39672 3.39841 8.56339C3.39841 8.73007 3.53353 8.86519 3.7002 8.86519Z" fill="#E1B872"/>
<path d="M7.32191 6.0483C7.48859 6.0483 7.62371 5.91318 7.62371 5.7465C7.62371 5.57982 7.48859 5.4447 7.32191 5.4447C7.15523 5.4447 7.02011 5.57982 7.02011 5.7465C7.02011 5.91318 7.15523 6.0483 7.32191 6.0483Z" fill="#E1B872"/>
<path d="M10.9437 5.24349C11.1104 5.24349 11.2455 5.10837 11.2455 4.94169C11.2455 4.77501 11.1104 4.63989 10.9437 4.63989C10.777 4.63989 10.6419 4.77501 10.6419 4.94169C10.6419 5.10837 10.777 5.24349 10.9437 5.24349Z" fill="#E1B872"/>
<path d="M10.9437 3.23152C11.1104 3.23152 11.2455 3.0964 11.2455 2.92973C11.2455 2.76305 11.1104 2.62793 10.9437 2.62793C10.777 2.62793 10.6419 2.76305 10.6419 2.92973C10.6419 3.0964 10.777 3.23152 10.9437 3.23152Z" fill="#E1B872"/>
<path d="M8.12675 3.23152C8.29343 3.23152 8.42854 3.0964 8.42854 2.92973C8.42854 2.76305 8.29343 2.62793 8.12675 2.62793C7.96007 2.62793 7.82495 2.76305 7.82495 2.92973C7.82495 3.0964 7.96007 3.23152 8.12675 3.23152Z" fill="#E1B872"/>
<path d="M9.37425 4.84102C9.54092 4.84102 9.67604 4.7059 9.67604 4.53922C9.67604 4.37255 9.54092 4.23743 9.37425 4.23743C9.20757 4.23743 9.07245 4.37255 9.07245 4.53922C9.07245 4.7059 9.20757 4.84102 9.37425 4.84102Z" fill="#E1B872"/>
<path d="M4.50504 10.8773C4.67172 10.8773 4.80684 10.7422 4.80684 10.5755C4.80684 10.4088 4.67172 10.2737 4.50504 10.2737C4.33837 10.2737 4.20325 10.4088 4.20325 10.5755C4.20325 10.7422 4.33837 10.8773 4.50504 10.8773Z" fill="#E1B872"/>
<path d="M7.8873 13.6804C6.20511 13.6805 4.52359 13.4804 2.88816 13.0804C1.91726 12.8429 1.27051 11.9372 1.38379 10.9737C1.65496 8.66774 1.89969 6.57348 2.13027 4.58516C1.40976 4.01844 1.2475 3.43148 1.2475 3.01813C1.2475 2.10969 2.01011 1.3043 3.39492 0.750352C4.60457 0.266484 6.20004 0 7.8873 0C9.57457 0 11.17 0.266484 12.3797 0.750352C13.7645 1.30426 14.5271 2.10965 14.5271 3.01813C14.5271 3.43148 14.3648 4.01844 13.6444 4.58516C13.875 6.57348 14.1196 8.66774 14.3909 10.9737C14.5041 11.9372 13.8574 12.8429 12.8865 13.0804C11.2514 13.4803 9.5691 13.6804 7.8873 13.6804ZM7.8873 1.20723C6.34992 1.20723 4.91371 1.44305 3.84324 1.87125C2.99972 2.20863 2.45472 2.65883 2.45472 3.01809C2.45472 3.24945 2.68828 3.53102 3.09551 3.79059C3.19102 3.85148 3.26747 3.93802 3.31613 4.04032C3.36478 4.14262 3.38366 4.25654 3.37062 4.36906C3.12793 6.46383 2.87023 8.67035 2.58277 11.1147C2.54051 11.4738 2.79511 11.8147 3.175 11.9077C6.25785 12.6618 9.5168 12.6618 12.5996 11.9077C12.9795 11.8147 13.2341 11.4739 13.1918 11.1147C12.9273 8.86637 12.6647 6.61783 12.404 4.36906C12.3909 4.25654 12.4098 4.14262 12.4585 4.04032C12.5071 3.93802 12.5836 3.85148 12.6791 3.79059C13.0863 3.53098 13.3199 3.24941 13.3199 3.01809C13.3199 2.65883 12.7748 2.20863 11.9314 1.87125C10.8609 1.44305 9.42472 1.20723 7.8873 1.20723Z" fill="#C98A2E"/>
<path d="M17.229 10.6192C17.8116 10.2478 18.1489 9.80853 18.1489 9.33771C18.1489 8.00423 15.4464 6.92322 12.1127 6.92322C8.77898 6.92322 6.07648 8.00423 6.07648 9.33771C6.07648 9.80853 6.41374 10.2478 6.9964 10.6192C6.73576 12.8676 6.47318 15.1158 6.20866 17.3638C6.1305 18.0284 6.57738 18.6474 7.25699 18.8136C10.4423 19.5928 13.7831 19.5928 16.9684 18.8136C17.6481 18.6473 18.0949 18.0284 18.0168 17.3638C17.7522 15.1158 17.4896 12.8676 17.229 10.6192Z" fill="#F8E5B5"/>
<path d="M12.1127 20C10.4305 20 8.74899 19.8 7.11356 19.3999C6.14267 19.1625 5.49591 18.2568 5.60919 17.2933C5.88036 14.9873 6.12509 12.8931 6.35567 10.9047C5.63521 10.338 5.4729 9.75106 5.4729 9.33771C5.4729 8.42927 6.23552 7.62388 7.62032 7.06993C8.83001 6.58606 10.4255 6.31958 12.1127 6.31958C13.8 6.31958 15.3955 6.58606 16.6052 7.06993C17.99 7.62384 18.7526 8.42923 18.7526 9.33771C18.7526 9.75106 18.5903 10.338 17.8698 10.9047C18.1004 12.8931 18.3451 14.9873 18.6163 17.2933C18.7296 18.2568 18.0829 19.1624 17.1119 19.3999C15.4768 19.7999 13.7945 19.9999 12.1127 20ZM12.1127 7.52681C10.5753 7.52681 9.13911 7.76263 8.06864 8.19083C7.22513 8.52821 6.68013 8.97841 6.68013 9.33767C6.68013 9.56903 6.91368 9.8506 7.32091 10.1102C7.41642 10.1711 7.49288 10.2576 7.54153 10.3599C7.59018 10.4622 7.60906 10.5761 7.59602 10.6886C7.35333 12.7834 7.09563 14.9899 6.80817 17.4343C6.76591 17.7934 7.02052 18.1343 7.4004 18.2272C10.4833 18.9814 13.7422 18.9813 16.825 18.2272C17.2049 18.1343 17.4595 17.7934 17.4172 17.4343C17.1527 15.186 16.8901 12.9374 16.6294 10.6886C16.6163 10.5761 16.6352 10.4622 16.6839 10.3599C16.7325 10.2576 16.809 10.1711 16.9045 10.1102C17.3117 9.85056 17.5453 9.56899 17.5453 9.33767C17.5453 8.97841 17.0002 8.52821 16.1568 8.19083C15.0863 7.76263 13.6501 7.52681 12.1127 7.52681Z" fill="#D5A150"/>
<path d="M8.93159 9.67C9.09827 9.67 9.23338 9.53488 9.23338 9.3682C9.23338 9.20153 9.09827 9.06641 8.93159 9.06641C8.76491 9.06641 8.62979 9.20153 8.62979 9.3682C8.62979 9.53488 8.76491 9.67 8.93159 9.67Z" fill="#ECCE93"/>
<path d="M11.3461 11.2796C11.5128 11.2796 11.6479 11.1445 11.6479 10.9778C11.6479 10.8111 11.5128 10.676 11.3461 10.676C11.1794 10.676 11.0443 10.8111 11.0443 10.9778C11.0443 11.1445 11.1794 11.2796 11.3461 11.2796Z" fill="#ECCE93"/>
<path d="M8.93159 10.8773C9.09827 10.8773 9.23338 10.7422 9.23338 10.5755C9.23338 10.4088 9.09827 10.2737 8.93159 10.2737C8.76491 10.2737 8.62979 10.4088 8.62979 10.5755C8.62979 10.7422 8.76491 10.8773 8.93159 10.8773Z" fill="#ECCE93"/>
<path d="M8.93159 14.0965C9.09827 14.0965 9.23338 13.9614 9.23338 13.7947C9.23338 13.628 9.09827 13.4929 8.93159 13.4929C8.76491 13.4929 8.62979 13.628 8.62979 13.7947C8.62979 13.9614 8.76491 14.0965 8.93159 14.0965Z" fill="#ECCE93"/>
<path d="M10.9437 13.6942C11.1104 13.6942 11.2455 13.5591 11.2455 13.3924C11.2455 13.2257 11.1104 13.0906 10.9437 13.0906C10.777 13.0906 10.6419 13.2257 10.6419 13.3924C10.6419 13.5591 10.777 13.6942 10.9437 13.6942Z" fill="#ECCE93"/>
<path d="M10.1388 15.3038C10.3055 15.3038 10.4406 15.1687 10.4406 15.002C10.4406 14.8353 10.3055 14.7002 10.1388 14.7002C9.97215 14.7002 9.83704 14.8353 9.83704 15.002C9.83704 15.1687 9.97215 15.3038 10.1388 15.3038Z" fill="#ECCE93"/>
<path d="M8.12675 15.3038C8.29343 15.3038 8.42854 15.1687 8.42854 15.002C8.42854 14.8353 8.29343 14.7002 8.12675 14.7002C7.96007 14.7002 7.82495 14.8353 7.82495 15.002C7.82495 15.1687 7.96007 15.3038 8.12675 15.3038Z" fill="#ECCE93"/>
<path d="M11.7485 12.4869C11.9152 12.4869 12.0503 12.3518 12.0503 12.1851C12.0503 12.0184 11.9152 11.8833 11.7485 11.8833C11.5818 11.8833 11.4467 12.0184 11.4467 12.1851C11.4467 12.3518 11.5818 12.4869 11.7485 12.4869Z" fill="#ECCE93"/>
<path d="M15.3702 11.6821C15.5369 11.6821 15.672 11.547 15.672 11.3803C15.672 11.2136 15.5369 11.0785 15.3702 11.0785C15.2035 11.0785 15.0684 11.2136 15.0684 11.3803C15.0684 11.547 15.2035 11.6821 15.3702 11.6821Z" fill="#ECCE93"/>
<path d="M15.3702 15.3038C15.5369 15.3038 15.672 15.1687 15.672 15.002C15.672 14.8353 15.5369 14.7002 15.3702 14.7002C15.2035 14.7002 15.0684 14.8353 15.0684 15.002C15.0684 15.1687 15.2035 15.3038 15.3702 15.3038Z" fill="#ECCE93"/>
<path d="M13.7605 16.5111C13.9272 16.5111 14.0623 16.3759 14.0623 16.2093C14.0623 16.0426 13.9272 15.9075 13.7605 15.9075C13.5939 15.9075 13.4587 16.0426 13.4587 16.2093C13.4587 16.3759 13.5939 16.5111 13.7605 16.5111Z" fill="#ECCE93"/>
<path d="M15.3702 16.9135C15.5369 16.9135 15.672 16.7784 15.672 16.6117C15.672 16.4451 15.5369 16.3099 15.3702 16.3099C15.2035 16.3099 15.0684 16.4451 15.0684 16.6117C15.0684 16.7784 15.2035 16.9135 15.3702 16.9135Z" fill="#ECCE93"/>
<path d="M15.3702 9.67C15.5369 9.67 15.672 9.53488 15.672 9.3682C15.672 9.20153 15.5369 9.06641 15.3702 9.06641C15.2035 9.06641 15.0684 9.20153 15.0684 9.3682C15.0684 9.53488 15.2035 9.67 15.3702 9.67Z" fill="#ECCE93"/>
<path d="M16.5774 16.1086C16.7441 16.1086 16.8792 15.9735 16.8792 15.8068C16.8792 15.6401 16.7441 15.505 16.5774 15.505C16.4108 15.505 16.2756 15.6401 16.2756 15.8068C16.2756 15.9735 16.4108 16.1086 16.5774 16.1086Z" fill="#ECCE93"/>
<path d="M13.3582 18.1207C13.5248 18.1207 13.66 17.9856 13.66 17.8189C13.66 17.6522 13.5248 17.5171 13.3582 17.5171C13.1915 17.5171 13.0564 17.6522 13.0564 17.8189C13.0564 17.9856 13.1915 18.1207 13.3582 18.1207Z" fill="#ECCE93"/>
<path d="M8.93159 17.3159C9.09827 17.3159 9.23338 17.1808 9.23338 17.0141C9.23338 16.8474 9.09827 16.7123 8.93159 16.7123C8.76491 16.7123 8.62979 16.8474 8.62979 17.0141C8.62979 17.1808 8.76491 17.3159 8.93159 17.3159Z" fill="#ECCE93"/>
</svg>
