<svg viewBox="0 0 20 20" fill="none" xmlns="http://www.w3.org/2000/svg">
<path d="M10.2171 3.95595C10.1589 3.90031 10.0815 3.86926 10.001 3.86926C9.92057 3.86926 9.84319 3.90031 9.78503 3.95595L2.59363 10.8259C2.56309 10.8551 2.53879 10.8902 2.52221 10.9291C2.50562 10.9679 2.4971 11.0098 2.49714 11.052L2.49597 17.4997C2.49597 17.8312 2.62767 18.1492 2.86209 18.3836C3.09651 18.618 3.41445 18.7497 3.74597 18.7497H7.49988C7.66564 18.7497 7.82461 18.6838 7.94182 18.5666C8.05903 18.4494 8.12488 18.2905 8.12488 18.1247V12.8122C8.12488 12.7293 8.1578 12.6498 8.21641 12.5912C8.27501 12.5326 8.3545 12.4997 8.43738 12.4997H11.5624C11.6453 12.4997 11.7247 12.5326 11.7833 12.5912C11.842 12.6498 11.8749 12.7293 11.8749 12.8122V18.1247C11.8749 18.2905 11.9407 18.4494 12.0579 18.5666C12.1751 18.6838 12.3341 18.7497 12.4999 18.7497H16.2522C16.5837 18.7497 16.9017 18.618 17.1361 18.3836C17.3705 18.1492 17.5022 17.8312 17.5022 17.4997V11.052C17.5023 11.0098 17.4937 10.9679 17.4772 10.9291C17.4606 10.8902 17.4363 10.8551 17.4057 10.8259L10.2171 3.95595Z" fill="white" fill-opacity="0.4"/>
<path d="M19.1761 9.53845L16.2542 6.74314V2.50134C16.2542 2.33558 16.1883 2.17661 16.0711 2.0594C15.9539 1.94219 15.7949 1.87634 15.6292 1.87634H13.7542C13.5884 1.87634 13.4295 1.94219 13.3122 2.0594C13.195 2.17661 13.1292 2.33558 13.1292 2.50134V3.75134L10.8667 1.58806C10.655 1.374 10.3401 1.25134 9.99989 1.25134C9.66083 1.25134 9.34677 1.374 9.13505 1.58845L0.826455 9.53767C0.583486 9.77205 0.553018 10.1576 0.774111 10.4115C0.829631 10.4756 0.897612 10.5277 0.973916 10.5647C1.05022 10.6017 1.13325 10.6227 1.21796 10.6266C1.30266 10.6305 1.38727 10.6171 1.46663 10.5872C1.54599 10.5574 1.61844 10.5117 1.67958 10.4529L9.78505 2.70759C9.84321 2.65196 9.92058 2.62091 10.0011 2.62091C10.0815 2.62091 10.1589 2.65196 10.2171 2.70759L18.3233 10.4529C18.4427 10.5674 18.6027 10.6299 18.7681 10.6267C18.9335 10.6235 19.0909 10.5548 19.2058 10.4357C19.4456 10.1873 19.4257 9.77712 19.1761 9.53845Z" fill="white" fill-opacity="0.4"/>
</svg>
