<svg viewBox="0 0 42 42" fill="none" xmlns="http://www.w3.org/2000/svg">
<path d="M21 42C32.598 42 42 32.598 42 21C42 9.40202 32.598 0 21 0C9.40202 0 0 9.40202 0 21C0 32.598 9.40202 42 21 42Z" fill="#F5F5F5"/>
<path d="M21 0C20.5742 0 20.1519 0.0141914 19.7324 0.0392109C30.74 0.694723 39.4648 9.82775 39.4648 21C39.4648 32.1722 30.74 41.3053 19.7324 41.9608C20.1519 41.9858 20.5742 42 21 42C32.598 42 42 32.598 42 21C42 9.40201 32.598 0 21 0Z" fill="#E6E6E6"/>
<path d="M21 35.4507C28.9809 35.4507 35.4507 28.9809 35.4507 21C35.4507 13.0191 28.9809 6.54926 21 6.54926C13.0191 6.54926 6.54929 13.0191 6.54929 21C6.54929 28.9809 13.0191 35.4507 21 35.4507Z" fill="#E6E6E6"/>
<path d="M21 6.54926C20.5728 6.54926 20.1502 6.56894 19.7324 6.6052C27.1195 7.24734 32.9155 13.4463 32.9155 21C32.9155 28.5536 27.1195 34.7526 19.7324 35.3947C20.1501 35.4311 20.5728 35.4507 21 35.4507C28.9809 35.4507 35.4507 28.9809 35.4507 21C35.4507 13.0191 28.9809 6.54926 21 6.54926Z" fill="#D4D4D4"/>
<path d="M22.7744 38.0688C21.1243 39.719 18.449 39.719 16.7989 38.0688L4.60876 25.8786C2.95862 24.2285 2.95862 21.5532 4.60876 19.9031C6.2589 18.2529 8.93419 18.2529 10.5843 19.9031L22.7744 32.0932C24.4246 33.7434 24.4246 36.4187 22.7744 38.0688Z" fill="#E36334"/>
<path d="M4.60876 19.9031C4.29647 20.2154 4.04348 20.5646 3.8494 20.9365C5.44228 20.1051 7.45385 20.358 8.79162 21.6958L20.9817 33.8859C22.3195 35.2237 22.5725 37.2353 21.7411 38.8282C22.1129 38.6341 22.462 38.3811 22.7744 38.0688C24.4246 36.4186 24.4246 33.7434 22.7744 32.0932L10.5843 19.9031C8.93419 18.253 6.25882 18.253 4.60876 19.9031Z" fill="#D45728"/>
<path d="M11.2251 22.781C10.9847 22.5409 10.5952 22.5408 10.355 22.781L7.48666 25.6493C7.24639 25.8896 7.24639 26.2791 7.48666 26.5194C7.72701 26.7595 8.1165 26.7596 8.35668 26.5194L11.2251 23.6511C11.4653 23.4109 11.4653 23.0214 11.2251 22.781Z" fill="#FDE2C3"/>
<path d="M13.3929 24.9489C13.1526 24.7087 12.7631 24.7087 12.5228 24.9489L9.6546 27.8173C9.41433 28.0575 9.41433 28.447 9.6546 28.6873C9.89503 28.9276 10.2844 28.9275 10.5247 28.6873L13.3929 25.8189C13.6331 25.5786 13.6331 25.1891 13.3929 24.9489Z" fill="#FDE2C3"/>
<path d="M15.5608 27.1167C15.3204 26.8765 14.9309 26.8765 14.6907 27.1167L11.8224 29.9851C11.5822 30.2254 11.5822 30.6149 11.8224 30.8551C12.0629 31.0954 12.4523 31.0953 12.6925 30.8551L15.5608 27.9867C15.801 27.7466 15.801 27.3571 15.5608 27.1167Z" fill="#FDE2C3"/>
<path d="M17.7287 29.2846C17.4884 29.0445 17.0988 29.0444 16.8586 29.2846L13.9903 32.1529C13.75 32.3932 13.75 32.7827 13.9903 33.023C14.2306 33.2632 14.6201 33.2632 14.8603 33.023L17.7287 30.1547C17.9689 29.9145 17.9689 29.525 17.7287 29.2846Z" fill="#FDE2C3"/>
<path d="M19.8965 31.4525C19.6562 31.2123 19.2667 31.2123 19.0264 31.4525L16.1582 34.3209C15.9179 34.5611 15.9179 34.9506 16.1582 35.1909C16.3986 35.4312 16.788 35.4311 17.0283 35.1909L19.8965 32.3225C20.1368 32.0823 20.1368 31.6928 19.8965 31.4525Z" fill="#FDE2C3"/>
<path d="M15.2211 17.2441L14.005 18.4603C13.8128 18.6525 13.5012 18.6525 13.309 18.4603L6.71492 11.8662C6.52272 11.674 6.52272 11.3623 6.71492 11.1701L7.93103 9.95402C8.12323 9.76183 8.43487 9.76183 8.62707 9.95402L15.2211 16.5481C15.4133 16.7403 15.4133 17.0519 15.2211 17.2441Z" fill="#FFB300"/>
<path d="M19.5912 13.9644L18.3751 15.1805C18.1829 15.3727 17.8713 15.3727 17.6791 15.1805L11.085 8.58639C10.8928 8.39419 10.8928 8.08255 11.085 7.89035L12.3011 6.67424C12.4933 6.48204 12.8049 6.48204 12.9971 6.67424L19.5912 13.2683C19.7835 13.4605 19.7835 13.7722 19.5912 13.9644Z" fill="#FFB300"/>
<path d="M20.5918 11.1406L19.3757 12.3567C19.1835 12.5489 18.8719 12.5489 18.6797 12.3567L12.0856 5.7626C11.8934 5.5704 11.8934 5.25876 12.0856 5.06656L13.3017 3.85045C13.4939 3.65825 13.8055 3.65825 13.9977 3.85045L20.5918 10.4445C20.784 10.6366 20.784 10.9483 20.5918 11.1406Z" fill="#FFD54F"/>
<path d="M23.6775 10.4019L22.4614 11.618C22.2692 11.8102 21.9575 11.8102 21.7653 11.618L15.1712 5.02395C14.979 4.83175 14.979 4.52011 15.1712 4.32791L16.3874 3.1118C16.5796 2.9196 16.8912 2.9196 17.0834 3.1118L23.6775 9.70588C23.8697 9.89808 23.8697 10.2097 23.6775 10.4019Z" fill="#FFB300"/>
<path d="M16.3216 14.5191L15.1055 15.7352C14.9133 15.9274 14.6016 15.9274 14.4094 15.7352L7.81535 9.14114C7.62315 8.94894 7.62315 8.6373 7.81535 8.4451L9.03147 7.22899C9.22367 7.03679 9.5353 7.03679 9.7275 7.22899L16.3216 13.8231C16.5139 14.0152 16.5139 14.3268 16.3216 14.5191Z" fill="#FFD54F"/>
<path d="M30.4693 19.6259L31.6854 18.4098C31.8776 18.2176 32.1892 18.2176 32.3814 18.4098L38.9755 25.0039C39.1677 25.1961 39.1677 25.5078 38.9755 25.7L37.7594 26.9161C37.5672 27.1083 37.2556 27.1083 37.0634 26.9161L30.4693 20.322C30.2771 20.1298 30.2771 19.8181 30.4693 19.6259Z" fill="#FFB300"/>
<path d="M26.0992 22.9057L27.3153 21.6896C27.5075 21.4974 27.8192 21.4974 28.0114 21.6896L34.6055 28.2837C34.7977 28.4759 34.7977 28.7875 34.6055 28.9797L33.3893 30.1958C33.1971 30.388 32.8855 30.388 32.6933 30.1958L26.0992 23.6018C25.907 23.4096 25.907 23.0979 26.0992 22.9057Z" fill="#FFB300"/>
<path d="M25.0987 25.7295L26.3148 24.5134C26.507 24.3212 26.8186 24.3212 27.0108 24.5134L33.6049 31.1075C33.7971 31.2997 33.7971 31.6113 33.6049 31.8035L32.3888 33.0196C32.1966 33.2118 31.885 33.2118 31.6928 33.0196L25.0987 26.4256C24.9065 26.2334 24.9065 25.9217 25.0987 25.7295Z" fill="#FFD54F"/>
<path d="M22.013 26.4682L23.2292 25.2521C23.4214 25.0599 23.733 25.0599 23.9252 25.2521L30.5193 31.8462C30.7115 32.0384 30.7115 32.35 30.5193 32.5422L29.3032 33.7584C29.111 33.9506 28.7993 33.9506 28.6071 33.7584L22.013 27.1643C21.8208 26.9721 21.8208 26.6604 22.013 26.4682Z" fill="#FFB300"/>
<path d="M29.3688 22.351L30.5849 21.1349C30.7771 20.9427 31.0888 20.9427 31.281 21.1349L37.8751 27.729C38.0672 27.9212 38.0672 28.2328 37.8751 28.425L36.6589 29.6411C36.4667 29.8333 36.1551 29.8333 35.9629 29.6411L29.3688 23.047C29.1766 22.8548 29.1766 22.5432 29.3688 22.351Z" fill="#FFD54F"/>
<path d="M27.5916 25.3943C33.0988 25.3943 37.5634 20.9298 37.5634 15.4225C37.5634 9.91527 33.0988 5.45074 27.5916 5.45074C22.0843 5.45074 17.6198 9.91527 17.6198 15.4225C17.6198 20.9298 22.0843 25.3943 27.5916 25.3943Z" fill="#FDE2C3"/>
<path d="M27.5915 5.45074C27.1621 5.45074 26.7391 5.4779 26.3239 5.53056C31.2327 6.15334 35.0282 10.3446 35.0282 15.4225C35.0282 20.5004 31.2327 24.6917 26.3239 25.3145C26.739 25.3672 27.1621 25.3943 27.5915 25.3943C33.0989 25.3943 37.5633 20.9298 37.5633 15.4225C37.5633 9.91521 33.0989 5.45074 27.5915 5.45074Z" fill="#EDC19D"/>
<path d="M27.5915 19.9014C30.0651 19.9014 32.0704 17.8961 32.0704 15.4225C32.0704 12.9489 30.0651 10.9436 27.5915 10.9436C25.1179 10.9436 23.1126 12.9489 23.1126 15.4225C23.1126 17.8961 25.1179 19.9014 27.5915 19.9014Z" fill="#FFB300"/>
<path d="M27.5915 10.9436C27.1511 10.9436 26.7259 11.0082 26.3239 11.1267C28.18 11.6736 29.5352 13.3893 29.5352 15.4224C29.5352 17.4556 28.18 19.1713 26.3239 19.7182C26.7259 19.8366 27.1511 19.9013 27.5915 19.9013C30.0652 19.9013 32.0704 17.896 32.0704 15.4223C32.0704 12.9487 30.0652 10.9436 27.5915 10.9436Z" fill="#FFA000"/>
</svg>
<svg viewBox="0 0 21 21" fill="none" xmlns="http://www.w3.org/2000/svg">
<rect x="8" width="5" height="21" fill="#92C1DC"/>
<rect y="13" width="5" height="21" transform="rotate(-90 0 13)" fill="#92C1DC"/>
</svg>
