<svg viewBox="0 0 20 12" fill="none" xmlns="http://www.w3.org/2000/svg">
<path d="M18.2422 2.87142C18.0499 2.86517 17.859 2.90646 17.6865 2.99164C17.5139 3.07681 17.3651 3.20324 17.2531 3.3597C17.2436 3.37332 17.23 3.38356 17.2143 3.38892C17.1986 3.39429 17.1815 3.3945 17.1657 3.38954C17.1498 3.38458 17.136 3.37469 17.1261 3.36132C17.1163 3.34794 17.111 3.33178 17.1109 3.31517V1.88353C17.1109 1.07298 16.4726 0.390952 15.6625 0.371812C15.4645 0.366807 15.2674 0.401491 15.083 0.473819C14.8986 0.546148 14.7305 0.654658 14.5887 0.792955C14.4469 0.931251 14.3341 1.09654 14.2572 1.27907C14.1802 1.46161 14.1406 1.6577 14.1406 1.8558V5.05892C14.1406 5.07964 14.1324 5.09951 14.1177 5.11416C14.1031 5.12882 14.0832 5.13705 14.0625 5.13705H5.93749C5.91677 5.13705 5.89689 5.12882 5.88224 5.11416C5.86759 5.09951 5.85936 5.07964 5.85936 5.05892V1.88353C5.85936 1.07298 5.22108 0.390952 4.41092 0.371812C4.21302 0.367019 4.01616 0.40186 3.83193 0.474283C3.64769 0.546707 3.4798 0.65525 3.33814 0.793526C3.19648 0.931801 3.08391 1.09702 3.00705 1.27945C2.93019 1.46188 2.8906 1.65784 2.89061 1.8558V3.31595C2.89057 3.33256 2.88524 3.34873 2.87539 3.3621C2.86554 3.37547 2.85168 3.38536 2.83583 3.39032C2.81998 3.39529 2.80297 3.39507 2.78725 3.3897C2.77153 3.38434 2.75793 3.3741 2.74842 3.36048C2.63639 3.20365 2.48732 3.07693 2.3145 2.99161C2.14167 2.90629 1.95043 2.865 1.7578 2.87142C1.12108 2.89134 0.624985 3.43041 0.624985 4.06751V7.92376C0.624985 8.56087 1.12264 9.09994 1.7578 9.11986C1.9501 9.12611 2.14098 9.08482 2.31351 8.99964C2.48604 8.91447 2.63488 8.78804 2.74686 8.63158C2.75614 8.61717 2.76989 8.60622 2.786 8.6004C2.80211 8.59458 2.81969 8.59421 2.83603 8.59937C2.85237 8.60452 2.86656 8.61489 2.87642 8.6289C2.88629 8.64291 2.89127 8.65977 2.89061 8.67689V10.1093C2.89061 10.9183 3.52889 11.6019 4.33905 11.6214C4.53698 11.6262 4.73387 11.5914 4.91814 11.5189C5.1024 11.4465 5.2703 11.3379 5.41197 11.1996C5.55363 11.0613 5.6662 10.896 5.74303 10.7135C5.81987 10.531 5.85942 10.335 5.85936 10.137V6.93392C5.85936 6.9132 5.86759 6.89333 5.88224 6.87868C5.89689 6.86403 5.91677 6.8558 5.93749 6.8558H14.0625C14.0832 6.8558 14.1031 6.86403 14.1177 6.87868C14.1324 6.89333 14.1406 6.9132 14.1406 6.93392V10.1093C14.1406 10.9199 14.7789 11.6019 15.589 11.621C15.7869 11.6258 15.9838 11.591 16.168 11.5186C16.3523 11.4461 16.5202 11.3376 16.6618 11.1993C16.8035 11.061 16.9161 10.8958 16.9929 10.7134C17.0698 10.531 17.1094 10.335 17.1094 10.137V8.67689C17.1094 8.66028 17.1147 8.64412 17.1246 8.63074C17.1344 8.61737 17.1483 8.60748 17.1641 8.60252C17.18 8.59756 17.197 8.59777 17.2127 8.60314C17.2284 8.6085 17.242 8.61874 17.2515 8.63236C17.3636 8.78919 17.5126 8.91591 17.6855 9.00123C17.8583 9.08656 18.0495 9.12784 18.2422 9.12142C18.8789 9.1015 19.375 8.56244 19.375 7.92533V4.0683C19.375 3.43119 18.8773 2.89212 18.2422 2.87142Z" fill="#61C4EE"/>
</svg>
